# xmcd
#
# Track frame offsets:
#	150
#	14725
#	26513
#	42495
#	56548
#	68930
#	82988
#	97163
#	107558
#	120518
#	132360
#	142505
#	156368
#	169530
#	185088
#	195898
#	207110
#	219663
#	234460
#	246293
#
# Disc length: 3455 seconds
#
# Revision: 1
# Processed by: cddbd v1.5.1PL0 Copyright (c) Steve Scherf et al.
# Submitted via: audiograbber 1.83.01
#
DISCID=150d7d14
DTITLE=Various Artist - Texmex 2
DYEAR=1900
DGENRE=Tex-Mex
TTITLE0=Ambicion
TTITLE1=Distintos Caminos
TTITLE2=Pobre Bohemio
TTITLE3=La Jaula De Oro
TTITLE4=Albacar China
TTITLE5=La Bamba Del Carro Rojo
TTITLE6=La Hilacha
TTITLE7=Rincon Norteno
TTITLE8=Tu Nuevo Carinito
TTITLE9=El Bosque De Mas Potencia
TTITLE10=Noches Eternas
TTITLE11=Cantanda
TTITLE12=La Muerte Del Soplon
TTITLE13=Y Por Esa Calle Vive
TTITLE14=Tienes Que Viver Conmigo
TTITLE15=Mujar Paseada
TTITLE16=Bonita Finca De Adobe
TTITLE17=Pa' Que Sientas Lo Que Siento
TTITLE18=Mi Casa Nueva
TTITLE19=Flor De Capomo
EXTD=
EXTT0=
EXTT1=
EXTT2=
EXTT3=
EXTT4=
EXTT5=
EXTT6=
EXTT7=
EXTT8=
EXTT9=
EXTT10=
EXTT11=
EXTT12=
EXTT13=
EXTT14=
EXTT15=
EXTT16=
EXTT17=
EXTT18=
EXTT19=
PLAYORDER=
